<svg xmlns="http://www.w3.org/2000/svg" width="444.819" height="444.819" viewBox="0 0 444.819 444.819"><path d="M433.968 278.657L248.388 92.79c-7.42-7.044-16.08-10.566-25.978-10.566-10.088 0-18.652 3.52-25.697 10.566L10.848 278.657C3.615 285.887 0 294.55 0 304.637c0 10.28 3.62 18.843 10.848 25.693l21.41 21.413c6.855 7.23 15.42 10.852 25.698 10.852s18.842-3.62 25.697-10.852L222.41 213.27l138.758 138.47c6.848 7.228 15.413 10.852 25.7 10.852 10.082 0 18.747-3.624 25.975-10.852l21.41-21.412c7.042-7.043 10.566-15.608 10.566-25.693 0-10.09-3.615-18.75-10.852-25.978z" fill="#fff"/></svg>